<?xml version="1.0" standalone="no"?>
<!DOCTYPE svg PUBLIC "-//W3C//DTD SVG 20010904//EN"
 "http://www.w3.org/TR/2001/REC-SVG-20010904/DTD/svg10.dtd">
<svg version="1.0" xmlns="http://www.w3.org/2000/svg"
 width="820.000000pt" height="834.000000pt" viewBox="0 0 820.000000 834.000000"
 preserveAspectRatio="xMidYMid meet">
<metadata>
Created by potrace 1.16, written by Peter Selinger 2001-2019
</metadata>
<g transform="translate(0.000000,834.000000) scale(0.100000,-0.100000)"
fill="#000000" stroke="none">
<path d="M3895 7823 c-53 -271 -67 -466 -40 -594 9 -40 12 -75 8 -79 -5 -4
-55 -12 -113 -19 -388 -46 -860 -207 -1200 -410 l-105 -63 -120 16 c-66 10
-258 38 -427 63 -169 25 -314 43 -324 39 -14 -6 -16 -22 -12 -139 4 -105 15
-181 53 -374 27 -133 46 -245 43 -248 -10 -10 -193 23 -391 71 -104 25 -191
43 -193 41 -11 -10 348 -153 457 -182 37 -9 72 -21 79 -25 8 -5 -9 -35 -56
-99 l-67 -91 -162 0 c-295 0 -559 39 -719 105 -16 7 -18 5 -13 -8 16 -41 120
-187 171 -239 74 -75 254 -199 371 -254 52 -25 95 -49 95 -53 0 -4 -18 -50
-41 -102 -174 -402 -270 -908 -257 -1357 l5 -164 -71 -46 c-151 -98 -241 -137
-376 -162 -158 -29 -159 -29 -140 -40 8 -4 53 -16 100 -26 99 -21 395 -25 470
-6 24 6 46 9 48 7 2 -2 10 -41 18 -87 16 -93 80 -333 119 -447 14 -41 25 -78
25 -82 0 -12 -138 -64 -245 -93 -55 -15 -104 -29 -110 -31 -5 -1 8 -11 30 -21
32 -15 64 -19 165 -19 69 0 146 3 172 7 l48 8 55 -110 c30 -61 55 -114 56
-118 1 -4 7 -16 14 -27 6 -11 31 -54 55 -95 281 -487 724 -924 1227 -1209 204
-115 477 -227 709 -291 154 -41 286 -72 291 -66 10 9 33 169 26 176 -4 4 -39
15 -77 24 -173 42 -753 306 -927 421 -149 99 -263 245 -275 352 -4 29 1 72 10
108 9 32 16 74 16 92 0 30 2 32 24 23 13 -5 59 -16 103 -25 43 -9 89 -19 103
-22 20 -5 11 9 -47 69 -81 86 -161 196 -204 280 -15 31 -51 132 -78 225 -28
92 -73 236 -101 318 l-51 150 13 193 c6 105 14 192 17 191 4 0 32 -53 63 -117
32 -66 89 -161 131 -217 104 -140 274 -325 299 -325 4 0 -25 62 -63 137 -55
109 -79 173 -116 303 -46 164 -46 166 -52 365 -4 110 -5 202 -4 204 2 2 27
-47 56 -110 68 -144 154 -292 225 -389 67 -91 207 -236 282 -293 30 -22 67
-52 82 -66 15 -13 30 -22 34 -19 3 4 -42 102 -101 220 -59 117 -103 209 -97
203 5 -5 44 -55 85 -110 42 -55 112 -140 156 -189 45 -48 81 -92 81 -96 0 -4
-60 -61 -132 -128 -73 -66 -146 -134 -163 -152 l-30 -32 50 20 c28 11 131 55
229 96 l179 76 71 -68 c78 -75 148 -117 301 -183 130 -55 407 -160 412 -155 2
2 -32 43 -76 92 -135 149 -253 311 -315 432 -32 63 -56 115 -54 116 43 26 220
182 289 254 117 123 152 171 268 365 52 86 95 156 97 154 5 -4 -45 -284 -66
-375 -20 -84 -70 -207 -179 -436 -34 -71 -61 -130 -61 -132 0 -15 47 21 87 66
183 211 311 412 423 665 98 223 113 254 120 250 4 -3 70 -109 146 -236 132
-219 156 -251 262 -346 30 -27 48 -55 62 -95 44 -125 52 -308 20 -453 -36
-168 -221 -501 -358 -647 -47 -50 -6 -29 69 36 120 103 302 296 340 361 20 33
53 90 75 127 21 37 43 68 47 68 9 0 0 -95 -15 -154 -5 -21 -21 -55 -34 -76
-14 -20 -38 -74 -54 -119 -15 -45 -45 -105 -66 -134 -64 -89 -204 -256 -297
-354 -49 -51 -85 -93 -79 -93 30 0 386 96 449 121 165 65 282 138 363 225 103
110 255 339 348 521 61 121 64 123 147 123 64 0 125 -28 159 -73 39 -51 86
-204 86 -281 0 -65 -36 -210 -68 -276 -20 -41 -88 -88 -324 -223 -203 -117
-291 -162 -428 -217 -77 -32 -142 -69 -247 -142 -231 -161 -475 -295 -610
-334 l-53 -15 0 -89 c0 -79 16 -239 25 -248 4 -4 133 15 171 24 16 4 31 -9 71
-63 28 -37 63 -79 78 -93 25 -22 27 -23 22 -5 -17 61 -26 105 -29 145 l-3 44
64 18 c36 10 66 16 67 15 1 -1 18 -35 38 -75 20 -39 38 -72 41 -72 2 0 1 38
-2 85 -5 68 -3 85 8 88 69 20 302 112 421 167 157 72 156 72 179 15 l12 -30 7
25 c5 14 8 38 9 53 1 36 17 50 196 167 195 127 339 244 501 405 162 162 350
389 425 515 8 13 10 13 19 0 7 -12 10 -8 10 15 0 19 25 72 65 139 35 60 66
114 68 120 2 6 30 2 78 -12 89 -26 309 -75 314 -70 2 2 -46 43 -107 92 -106
86 -177 164 -178 196 0 9 20 65 44 125 54 135 121 353 151 494 19 93 24 106
41 103 45 -8 369 -14 421 -7 l57 7 -55 33 c-118 72 -191 132 -244 200 -69 90
-123 180 -134 225 -5 19 -11 123 -14 230 l-5 195 20 -60 c22 -70 88 -387 88
-427 0 -54 19 -27 27 40 18 148 9 245 -41 417 -30 106 -62 192 -95 255 -33 64
-54 122 -66 178 -9 46 -14 86 -12 89 3 2 42 -1 88 -8 78 -11 248 -7 271 7 5 4
-16 15 -48 26 -132 44 -308 143 -365 205 -15 15 -52 93 -84 173 -31 80 -95
219 -141 310 l-85 165 71 190 c176 469 273 766 268 819 -6 61 -84 66 -573 36
-82 -5 -247 -9 -366 -9 l-215 -1 -17 103 c-21 131 -60 258 -93 296 -28 34
-126 98 -198 129 -27 12 -49 22 -50 22 -1 0 39 -42 90 -94 117 -120 141 -167
149 -296 l6 -95 -63 120 c-127 243 -130 246 -388 345 -185 72 -517 217 -554
242 -17 12 -61 48 -98 81 -38 32 -68 54 -68 48 0 -15 48 -111 119 -236 37 -66
81 -127 130 -178 41 -42 72 -80 69 -82 -3 -3 -59 10 -125 29 -156 45 -331 82
-467 98 l-109 13 -96 115 c-53 63 -137 170 -186 237 -49 67 -91 120 -93 118
-2 -1 10 -33 27 -70 41 -91 146 -247 214 -321 31 -34 57 -64 57 -68 0 -3 -37
-3 -82 0 -78 5 -85 8 -114 39 -73 81 -200 360 -275 608 -18 59 -36 107 -40
107 -3 0 -14 -39 -24 -87z m3284 -1432 c22 -43 22 -50 -15 -196 -35 -137 -217
-651 -239 -673 -2 -2 -19 27 -38 64 -19 38 -53 100 -76 139 -23 38 -41 78 -41
88 0 10 -4 16 -9 13 -5 -3 -14 7 -21 23 -6 16 -19 37 -28 48 -21 24 -41 53
-49 73 -3 8 -25 32 -49 54 -32 28 -63 44 -115 58 -40 10 -81 25 -93 33 -11 8
-28 15 -38 15 -32 0 -19 18 25 34 23 8 96 35 162 59 131 49 138 51 270 98 225
79 311 108 322 109 7 0 21 -17 32 -39z m-5375 4 c12 -8 25 -12 29 -9 3 3 3 -3
0 -15 -3 -13 0 -23 10 -27 8 -3 14 -13 12 -22 -1 -9 2 -20 6 -23 5 -3 10 -17
11 -32 1 -15 6 -27 10 -27 4 0 5 -6 2 -14 -3 -7 11 -47 31 -89 46 -98 44 -110
-20 -119 -99 -13 -153 -10 -159 10 -37 130 -46 313 -17 357 16 26 54 30 85 10z
m392 -74 c-8 -13 20 -21 32 -9 6 6 17 6 28 1 11 -6 45 -16 77 -23 31 -7 57
-15 57 -18 0 -2 -20 -27 -45 -55 -54 -59 -89 -107 -79 -107 4 0 39 29 78 63
101 91 117 100 158 89 18 -4 33 -15 33 -22 0 -28 -120 -107 -202 -134 -100
-33 -190 -48 -213 -36 -16 9 -35 60 -21 58 27 -3 42 4 38 16 -4 10 -1 13 9 9
7 -3 14 0 14 6 0 6 10 11 22 11 20 0 19 3 -12 30 -19 16 -40 29 -45 30 -17 0
-45 38 -45 60 0 17 7 20 49 20 28 0 53 5 56 10 3 6 8 10 11 10 3 0 3 -4 0 -9z
m-198 -447 c28 -6 29 -30 1 -45 -30 -15 -149 -49 -175 -49 -17 0 -24 9 -33 44
-6 25 -11 49 -11 55 0 9 166 6 218 -5z m2843 -2049 c71 -173 183 -493 203
-577 11 -48 -8 -30 -38 35 -118 258 -226 549 -246 658 -6 35 -13 73 -15 83 -9
47 19 -13 96 -199z"/>
</g>
</svg>
